<?xml version="1.0" standalone="no"?>
<!DOCTYPE svg PUBLIC "-//W3C//DTD SVG 20010904//EN"
 "http://www.w3.org/TR/2001/REC-SVG-20010904/DTD/svg10.dtd">
<svg version="1.0" xmlns="http://www.w3.org/2000/svg"
 width="500.000000pt" height="500.000000pt" viewBox="0 0 500.000000 500.000000"
 preserveAspectRatio="xMidYMid meet">
<metadata>
Created by potrace 1.14, written by Peter Selinger 2001-2017
</metadata>
<g transform="translate(0.000000,500.000000) scale(0.100000,-0.100000)"
fill="#000000" stroke="none">
<path d="M2374 4464 c-348 -138 -953 -372 -977 -378 -55 -13 -941 -358 -983
-382 -32 -19 -63 -27 -119 -31 l-75 -6 0 -1488 0 -1489 2265 0 2265 0 0 1495
0 1495 -54 0 c-37 0 -69 8 -103 24 -26 13 -127 54 -223 91 -382 146 -725 277
-915 350 -110 43 -364 140 -565 217 -201 77 -374 141 -386 143 -11 2 -70 -17
-130 -41z m268 -2112 c85 -41 167 -128 199 -209 33 -85 37 -200 9 -282 -69
-206 -279 -319 -488 -263 -85 23 -136 56 -201 128 -68 77 -96 156 -96 269 1
79 4 98 31 155 41 86 99 149 174 189 88 47 103 50 210 48 85 -2 103 -5 162
-35z"/>
</g>
</svg>
